<?xml version="1.0" ?><!DOCTYPE svg  PUBLIC '-//W3C//DTD SVG 1.1//EN'  'http://www.w3.org/Graphics/SVG/1.1/DTD/svg11.dtd'><svg enable-background="new 0 0 512 512" height="512px" id="Layer_1" version="1.1" viewBox="0 0 512 512" width="512px" xml:space="preserve" xmlns="http://www.w3.org/2000/svg" xmlns:xlink="http://www.w3.org/1999/xlink"><g><g><path d="M512,256c0,139.185-111.065,252.415-249.423,255.923C260.373,511.962,258.208,512,256,512     C114.611,512,0,397.393,0,256C0,114.611,114.611,0,256,0c127.016,0,232.369,92.477,252.496,213.742     C510.819,227.488,512,241.627,512,256z" fill="#89C0C7"/><path d="M512,256c0,139.185-111.065,252.415-249.423,255.923c-67.623-67.623-154.742-154.742-154.742-154.78     c-6.224-0.435-11.146-5.593-11.146-11.896V122.842c0-6.657,5.396-12.011,12.054-12.011h294.516     c6.381,0,11.542,4.923,11.973,11.146c0.946,0.077,43.758,42.416,93.266,91.766C510.819,227.488,512,241.627,512,256z" opacity="0.2"/><rect fill="#0D2038" height="45.281" width="90.445" x="210.773" y="350.157"/><g><g><path d="M403.242,110.827c6.669,0,12.073,5.373,12.073,12.004v222.415c0,6.627-5.404,12.004-12.073,12.004       h-294.5c-6.665,0-12.069-5.377-12.069-12.004V122.831c0-6.631,5.404-12.004,12.069-12.004H403.242z" fill="#0D2038"/><rect fill="#0D2038" height="213.269" width="284.357" x="113.815" y="127.404"/><rect fill="#0D2038" height="16.7" width="284.35" x="113.819" y="127.407"/><g><path d="M129.577,135.754c0,2.492-2.02,4.516-4.512,4.516c-2.488,0-4.512-2.023-4.512-4.516        c0-2.484,2.023-4.508,4.512-4.508C127.558,131.246,129.577,133.27,129.577,135.754z" fill="#0D2038"/><path d="M129.577,135.754c0,2.492-2.02,4.516-4.512,4.516c-2.488,0-4.512-2.023-4.512-4.516        c0-2.484,2.023-4.508,4.512-4.508C127.558,131.246,129.577,133.27,129.577,135.754z" fill="#0D2038"/></g><path d="M142.069,135.754c0,2.492-2.02,4.516-4.512,4.516s-4.512-2.023-4.512-4.516       c0-2.484,2.02-4.508,4.512-4.508S142.069,133.27,142.069,135.754z" fill="#0D2038"/><path d="M154.565,135.754c0,2.492-2.023,4.516-4.516,4.516s-4.512-2.023-4.512-4.516       c0-2.484,2.02-4.508,4.512-4.508S154.565,133.27,154.565,135.754z" fill="#0D2038"/></g><g><path d="M403.242,110.827c6.669,0,12.073,5.373,12.073,12.004v222.415c0,6.627-5.404,12.004-12.073,12.004       h-294.5c-6.665,0-12.069-5.377-12.069-12.004V122.831c0-6.631,5.404-12.004,12.069-12.004H403.242z" fill="#102947"/><rect fill="#FFFFFF" height="213.269" width="284.357" x="113.815" y="127.404"/><rect fill="#D1CCE8" height="16.7" opacity="0.8" width="284.35" x="113.819" y="127.407"/><g><path d="M129.577,135.754c0,2.492-2.02,4.516-4.512,4.516c-2.488,0-4.512-2.023-4.512-4.516        c0-2.484,2.023-4.508,4.512-4.508C127.558,131.246,129.577,133.27,129.577,135.754z" fill="#E27C3E"/></g><path d="M142.069,135.754c0,2.492-2.02,4.516-4.512,4.516s-4.512-2.023-4.512-4.516       c0-2.484,2.02-4.508,4.512-4.508S142.069,133.27,142.069,135.754z" fill="#EFC849"/><path d="M154.565,135.754c0,2.492-2.023,4.516-4.516,4.516s-4.512-2.023-4.512-4.516       c0-2.484,2.02-4.508,4.512-4.508S154.565,133.27,154.565,135.754z" fill="#1ABC9C"/></g></g><path d="M338.323,396.585c0,2.538-2.059,4.597-4.597,4.597H178.241c-2.538,0-4.597-2.059-4.597-4.597v-2.296     c0-2.538,2.059-4.597,4.597-4.597h155.485c2.538,0,4.597,2.059,4.597,4.597V396.585z" fill="#0D2038"/><path d="M398.173,267.692v72.98H254.111c-16.123-16.115-68.688-68.681-106.592-106.584l0.054-0.051l-0.054-0.046     l16.75-16.754l0.05,0.046l29.338-29.334c2.877,2.881,13.258,13.266,23.643,23.642c10.377,10.377,20.75,20.762,23.627,23.627     l0.893,0.896l27.758-45.3l18.762,11.492c-0.493,0.808,36.161,37.415,36.615,37.692l5.961-5.962     c-13.746-13.746,3.75,3.746-29.334-29.33l16.754-16.758c18.265,18.266,26.011,26.004,28.526,28.512     c-1.857-1.881-5.73-5.762-6.346-6.393c0.546,0.53,4,3.984,13.435,13.415C362.716,232.242,376.635,246.146,398.173,267.692z" opacity="0.11"/><g><polygon fill="#0D2038" points="210.407,204.708 193.657,187.954 164.323,217.288 164.27,217.238 147.52,233.988       147.573,234.038 147.52,234.092 164.27,250.842 164.323,250.792 193.657,280.123 210.407,263.373 181.073,234.038     "/><polygon fill="#0D2038" points="364.469,234.092 364.419,234.038 364.469,233.988 347.719,217.238 347.665,217.288       318.335,187.954 301.581,204.708 330.915,234.038 301.581,263.373 318.335,280.123 347.665,250.792 347.719,250.842     "/><rect fill="#0D2038" height="87.908" transform="matrix(-0.8526 -0.5226 0.5226 -0.8526 351.9577 567.3495)" width="22" x="244.995" y="190.083"/></g></g></g></svg>